<svg xmlns="http://www.w3.org/2000/svg" width="424.37" height="584" viewBox="0 0 636.55 876" preserveAspectRatio="xMinYMin meet">
<metadata>
<structo:source xmlns:structo="https://nigjo.github.io/structogramview/">
<![CDATA[initialize application
IF: everything OK?
  play some tone
ELSE:
  output error message
ENDIF:
FOR: from 1 to 10
  add counter to sum
  SELECT: index
  CASE: 1
    print "first"
  CASE: 5
    print "center"
  CASE: 10
    print "last"
  DEFAULT:
    print index
  ENDSELECT:
ENDFOR:
#fancy things are sometimes really strange
CALL: do something fancy to sum
print current sum
LOOP: 
  #loops are cool
  #      and newlines too
  IF: current sum is odd
    add 1 to sum
  ENDIF:
  divide sum by 2
ENDLOOP: sum > 10
RETURN: calculated result
]]>
</structo:source>
</metadata>
<style>
svg{stroke:none;stroke-width:1px;fill:white;}
line{stroke:black;}
text{font-family:sans-serif;fill:black;}
.comment&gt;text{font-style:italic;fill:gray;}
.whiteShadow{fill:none !important;stroke:white;stroke-width:2px;}
.casevalue,.blocktitle{fill:gray;font-size:75%;font-style:italic;}
.caption{font-weight:bold;font-size:1.25em;}
svg{font-size:24px}</style>
<g class="diagram" transform="translate(0,0)">
<rect width="636.55" height="876"/>
<g class="sequence" transform="translate(12,12)">
<line x1="612.55" y1="0" x2="612.55" y2="49.5"/>
<line x1="0" y1="0" x2="0" y2="49.5"/>
<line x1="0" y1="0" x2="612.55" y2="0"/>
<text x="6" y="33" textLength="223.5">initialize application</text>
</g>
<g class="if" transform="translate(12,61.5)">
<line x1="612.55" y1="0" x2="612.55" y2="106.5"/>
<line x1="0" y1="0" x2="0" y2="106.5"/>
<line x1="0" y1="0" x2="612.55" y2="0"/>
<line x1="0" y1="0" x2="254.53" y2="55.5"/>
<line x1="254.53" y1="55.5" x2="612.55" y2="0"/>
<text x="220.5" y="27" textLength="171" class="whiteShadow">everything OK?</text>
<text x="220.5" y="27" textLength="171">everything OK?</text>
<g class="then" transform="translate(1.5,55.5)">
<text x="4.5" y="-6" textLength="33" class="blocktitle">true</text>
<g class="sequence" transform="translate(0,0)">
<line x1="-1.5" y1="0" x2="254.53" y2="0"/>
<line x1="0" y1="51" x2="253.03" y2="51"/>
<text x="6" y="33" textLength="172.5">play some tone</text>
</g>
</g>
<g class="else" transform="translate(254.53,55.5)">
<line x1="0" y1="0" x2="0" y2="51"/>
<text x="313.17" y="-6" textLength="37.5" class="blocktitle">false</text>
<g class="sequence" transform="translate(1.5,0)">
<line x1="-1.5" y1="0" x2="356.53" y2="0"/>
<line x1="0" y1="51" x2="355.03" y2="51"/>
<text x="6" y="33" textLength="247.5">output error message</text>
</g>
</g>
</g>
<g class="for" transform="translate(12,168)">
<line x1="612.55" y1="0" x2="612.55" y2="205.5"/>
<line x1="0" y1="0" x2="0" y2="205.5"/>
<line x1="0" y1="0" x2="612.55" y2="0"/>
<text x="12" y="33" textLength="138">from 1 to 10</text>
<g class="block" transform="translate(37.5,49.5)">
<g class="sequence" transform="translate(0,0)">
<line x1="0" y1="0" x2="0" y2="49.5"/>
<line x1="0" y1="0" x2="573.55" y2="0"/>
<text x="6" y="33" textLength="222">add counter to sum</text>
</g>
<g class="switch" transform="translate(0,49.5)">
<line x1="0" y1="0" x2="0" y2="106.5"/>
<line x1="0" y1="0" x2="573.55" y2="0"/>
<line x1="0" y1="0" x2="437.93" y2="55.5"/>
<line x1="437.93" y1="55.5" x2="573.55" y2="0"/>
<text x="255.75" y="27" textLength="61.5" class="whiteShadow">index</text>
<text x="255.75" y="27" textLength="61.5">index</text>
<g class="case" transform="translate(1.5,55.5)">
<text x="0" y="-6" textLength="10.5" class="casevalue whiteShadow">1</text>
<text x="0" y="-6" textLength="10.5" class="casevalue">1</text>
<g class="sequence" transform="translate(0,0)">
<line x1="-1.5" y1="0" x2="138.7" y2="0"/>
<line x1="0" y1="51" x2="137.2" y2="51"/>
<text x="6" y="33" textLength="124.5">print "first"</text>
</g>
</g>
<g class="case" transform="translate(138.7,55.5)">
<line x1="0" y1="0" x2="0" y2="51"/>
<text x="0" y="-6" textLength="10.5" class="casevalue whiteShadow">5</text>
<text x="0" y="-6" textLength="10.5" class="casevalue">5</text>
<g class="sequence" transform="translate(1.5,0)">
<line x1="-1.5" y1="0" x2="165.2" y2="0"/>
<line x1="0" y1="51" x2="163.7" y2="51"/>
<text x="6" y="33" textLength="151.5">print "center"</text>
</g>
</g>
<g class="case" transform="translate(303.9,55.5)">
<line x1="0" y1="0" x2="0" y2="51"/>
<text x="0" y="-6" textLength="19.5" class="casevalue whiteShadow">10</text>
<text x="0" y="-6" textLength="19.5" class="casevalue">10</text>
<g class="sequence" transform="translate(1.5,0)">
<line x1="-1.5" y1="0" x2="134.02" y2="0"/>
<line x1="0" y1="51" x2="132.52" y2="51"/>
<text x="6" y="33" textLength="120">print "last"</text>
</g>
</g>
<g class="block" transform="translate(437.93,55.5)">
<line x1="0" y1="0" x2="0" y2="51"/>
<g class="sequence" transform="translate(1.5,0)">
<line x1="-1.5" y1="0" x2="135.63" y2="0"/>
<line x1="0" y1="51" x2="134.13" y2="51"/>
<text x="6" y="33" textLength="121.5">print index</text>
</g>
</g>
</g>
</g>
</g>
<g class="comment" transform="translate(12,373.5)">
<line x1="612.55" y1="0" x2="612.55" y2="49.5"/>
<line x1="0" y1="0" x2="0" y2="49.5"/>
<line x1="0" y1="0" x2="612.55" y2="0"/>
<text x="6" y="33" textLength="442.5">fancy things are sometimes really strange</text>
</g>
<g class="call" transform="translate(12,423)">
<line x1="612.55" y1="0" x2="612.55" y2="49.5"/>
<line x1="0" y1="0" x2="0" y2="49.5"/>
<line x1="0" y1="0" x2="612.55" y2="0"/>
<text x="24" y="33" textLength="307.5">do something fancy to sum</text>
<line x1="13.5" y1="0" x2="13.5" y2="49.5"/>
<line x1="599.05" y1="0" x2="599.05" y2="49.5"/>
</g>
<g class="sequence" transform="translate(12,472.5)">
<line x1="612.55" y1="0" x2="612.55" y2="49.5"/>
<line x1="0" y1="0" x2="0" y2="49.5"/>
<line x1="0" y1="0" x2="612.55" y2="0"/>
<text x="6" y="33" textLength="198">print current sum</text>
</g>
<g class="while" transform="translate(12,522)">
<line x1="612.55" y1="0" x2="612.55" y2="291"/>
<line x1="0" y1="0" x2="0" y2="291"/>
<line x1="0" y1="0" x2="612.55" y2="0"/>
<text x="12" y="276" textLength="102">sum &gt; 10</text>
<g class="block" transform="translate(37.5,1.5)">
<g class="comment" transform="translate(0,0)">
<line x1="0" y1="0" x2="0" y2="84"/>
<text x="6" y="33" textLength="328.5">
<tspan textLength="148.5">loops are cool</tspan>
<tspan x="6" dy="36px" textLength="180">and newlines too</tspan>
</text>
</g>
<g class="if" transform="translate(0,84)">
<line x1="0" y1="0" x2="0" y2="106.5"/>
<line x1="0" y1="0" x2="573.55" y2="0"/>
<line x1="0" y1="0" x2="393.05" y2="55.5"/>
<line x1="393.05" y1="55.5" x2="573.55" y2="0"/>
<text x="180.75" y="27" textLength="211.5" class="whiteShadow">current sum is odd</text>
<text x="180.75" y="27" textLength="211.5">current sum is odd</text>
<g class="then" transform="translate(1.5,55.5)">
<text x="4.5" y="-6" textLength="33" class="blocktitle">true</text>
<g class="sequence" transform="translate(0,0)">
<line x1="-1.5" y1="0" x2="393.05" y2="0"/>
<line x1="0" y1="51" x2="391.55" y2="51"/>
<text x="6" y="33" textLength="147">add 1 to sum</text>
</g>
</g>
<g class="else" transform="translate(393.05,55.5)">
<line x1="0" y1="0" x2="0" y2="51"/>
<text x="137.15" y="-6" textLength="37.5" class="blocktitle">false</text>
<g class="sequence" transform="translate(1.5,0)">
<line x1="-1.5" y1="0" x2="180.5" y2="0"/>
<line x1="0" y1="51" x2="179" y2="51"/>
</g>
</g>
</g>
<g class="sequence" transform="translate(0,190.5)">
<line x1="0" y1="0" x2="0" y2="51"/>
<line x1="0" y1="0" x2="573.55" y2="0"/>
<line x1="0" y1="51" x2="573.55" y2="51"/>
<text x="6" y="33" textLength="175.5">divide sum by 2</text>
</g>
</g>
</g>
<g class="break" transform="translate(12,813)">
<line x1="612.55" y1="0" x2="612.55" y2="51"/>
<line x1="0" y1="0" x2="0" y2="51"/>
<line x1="0" y1="0" x2="612.55" y2="0"/>
<line x1="0" y1="51" x2="612.55" y2="51"/>
<text x="36" y="33" textLength="184.5">calculated result</text>
<line x1="0" y1="25.5" x2="37.5" y2="0"/>
<line x1="0" y1="25.5" x2="37.5" y2="51"/>
</g>
</g>
</svg>