<svg xmlns="http://www.w3.org/2000/svg" width="494.03" height="88" viewBox="0 0 741.05 132" preserveAspectRatio="xMinYMin meet">
<metadata>
<structo:source xmlns:structo="https://nigjo.github.io/structogramview/">
<![CDATA[IF: passt alles?
  Anweisung 1: mach irgendwas
ELSE:
  Anweisung 2: Fehler ausgeben
ENDIF:

]]>
</structo:source>
</metadata>
<style>
svg{stroke:none;stroke-width:1px;fill:white;}
line{stroke:black;}
text{font-family:sans-serif;fill:black;}
.comment&gt;text{font-style:italic;fill:gray;}
.whiteShadow{fill:none !important;stroke:white;stroke-width:2px;}
.casevalue,.blocktitle{fill:gray;font-size:75%;font-style:italic;}
.caption{font-weight:bold;font-size:1.25em;}
svg{font-size:24px}</style>
<g class="diagram" transform="translate(0,0)">
<rect width="741.05" height="132"/>
<g class="if" transform="translate(12,12)">
<line x1="717.05" y1="0" x2="717.05" y2="108"/>
<line x1="0" y1="0" x2="0" y2="108"/>
<line x1="0" y1="0" x2="717.05" y2="0"/>
<line x1="0" y1="108" x2="717.05" y2="108"/>
<line x1="0" y1="0" x2="356.9" y2="55.5"/>
<line x1="356.9" y1="55.5" x2="717.05" y2="0"/>
<text x="294.75" y="27" textLength="127.5" class="whiteShadow">passt alles?</text>
<text x="294.75" y="27" textLength="127.5">passt alles?</text>
<g class="then" transform="translate(1.5,55.5)">
<text x="4.5" y="-6" textLength="15" class="blocktitle">ja</text>
<g class="sequence" transform="translate(0,0)">
<line x1="-1.5" y1="0" x2="356.9" y2="0"/>
<line x1="0" y1="51" x2="355.4" y2="51"/>
<text x="6" y="33" textLength="343.5">Anweisung 1: mach irgendwas</text>
</g>
</g>
<g class="else" transform="translate(356.9,55.5)">
<line x1="0" y1="0" x2="0" y2="51"/>
<text x="318.18" y="-6" textLength="34.5" class="blocktitle">nein</text>
<g class="sequence" transform="translate(1.5,0)">
<line x1="-1.5" y1="0" x2="358.65" y2="0"/>
<line x1="0" y1="51" x2="357.15" y2="51"/>
<text x="6" y="33" textLength="345">Anweisung 2: Fehler ausgeben</text>
</g>
</g>
</g>
</g>
</svg>